<?xml version="1.0" encoding="UTF-8"?>
<svg id="Layer_1" fill="#D4D4D4" data-name="Layer 1" xmlns="http://www.w3.org/2000/svg" viewBox="0 0 200 200">
  <path d="M31,83.89c0-.43,0-.85,0-1.27,0-3.23,.03-6.45-.02-9.68-.01-.95,.34-1.22,1.25-1.21,3.22,.04,6.45-.02,9.67,.03,.99,.01,1.38-.23,1.36-1.31-.07-3.18,0-6.37-.04-9.56-.01-.94,.24-1.35,1.24-1.34,3.54,.03,7.08,.01,10.62,0,.75,0,1.05,.31,1.04,1.06-.02,3.58-.03,7.16,0,10.74,0,.89-.43,1.03-1.18,1.02-3.26-.03-6.53,.02-9.79-.03-.95-.01-1.29,.22-1.27,1.24,.06,3.14-.04,6.29,.03,9.44,.03,1.23-.45,1.57-1.58,1.56-3.15-.04-6.29,0-9.44-.03-.93-.01-1.28,.17-1.25,1.24,.08,3.3-.02,6.61,0,9.91,0,.79-.3,1.01-1.04,1-3.3-.03-6.6,.02-9.9-.03-.97-.01-1.3,.28-1.28,1.27,.05,3.26,0,6.53,.03,9.79,.01,.9-.26,1.23-1.21,1.22-3.46-.04-6.92-.01-10.38,.05-.93,.02-1.23-.3-1.22-1.22,.04-3.54,.03-7.08,0-10.62,0-.85,.31-1.08,1.11-1.07,3.26,.06,6.53,.03,9.79,.11,1.02,.02,1.39-.27,1.36-1.33-.08-3.07-.06-6.13-.08-9.2,0-1.71,0-1.72,1.66-1.71,3.3,0,6.61,.02,9.91,.03,.15,0,.3-.04,.61-.09Z"/>
  <path d="M33.27,14.25c0,2.97,0,5.83,0,8.69,0,.67-.08,1.35,.02,2,.17,1.21-.4,1.45-1.48,1.43-3.11-.05-6.21,.01-9.32-.04-1.07-.02-1.51,.19-1.46,1.43,.12,3.22,.02,6.45,.08,9.67,.02,.96-.34,1.2-1.25,1.19-3.38-.04-6.76-.04-10.14,0-1.03,.01-1.47-.26-1.45-1.39,.07-3.42,.05-6.84,0-10.26-.01-.91,.27-1.24,1.21-1.23,3.61,.04,7.22,.02,10.93,.02,.03-.51,.09-1.05,.09-1.59,.01-3.07,.05-6.14-.01-9.2-.02-1.1,.36-1.4,1.42-1.38,3.18,.06,6.37-.01,9.55,.04,.95,.02,1.22-.3,1.21-1.22-.04-3.26,0-6.53-.03-9.79-.01-.92,.29-1.25,1.22-1.24,3.5,.04,7,.04,10.5,0,.87,0,1.17,.3,1.16,1.17-.03,3.46-.04,6.92,0,10.38,.01,.93-.31,1.25-1.22,1.24-3.19-.03-6.37-.01-9.56,0-.46,0-.92,.05-1.49,.08Z"/>
  <path d="M37.74,151.26c0,2.97,0,5.83,0,8.69,0,.67-.08,1.35,.02,2,.17,1.21-.4,1.45-1.48,1.43-3.11-.05-6.21,.01-9.32-.04-1.07-.02-1.51,.19-1.46,1.43,.12,3.22,.02,6.45,.08,9.67,.02,.96-.34,1.2-1.25,1.19-3.38-.04-6.76-.04-10.14,0-1.03,.01-1.47-.26-1.45-1.39,.07-3.42,.05-6.84,0-10.26-.01-.91,.27-1.24,1.21-1.23,3.61,.04,7.22,.02,10.93,.02,.03-.51,.09-1.05,.09-1.59,.01-3.07,.05-6.14-.01-9.2-.02-1.1,.36-1.4,1.42-1.38,3.18,.06,6.37-.01,9.55,.04,.95,.02,1.22-.3,1.21-1.22-.04-3.26,0-6.53-.03-9.79-.01-.92,.29-1.25,1.22-1.24,3.5,.04,7,.04,10.5,0,.87,0,1.17,.3,1.16,1.17-.03,3.46-.04,6.92,0,10.38,.01,.93-.31,1.25-1.22,1.24-3.19-.03-6.37-.01-9.56,0-.46,0-.92,.05-1.49,.08Z"/>
  <path d="M99.62,102.52c0-.43,0-.85,0-1.27,0-3.23,.03-6.45-.02-9.68-.01-.95,.34-1.22,1.25-1.21,3.22,.04,6.45-.02,9.67,.03,.99,.01,1.38-.23,1.36-1.31-.07-3.18,0-6.37-.04-9.56-.01-.94,.24-1.35,1.24-1.34,3.54,.03,7.08,.01,10.62,0,.75,0,1.05,.31,1.04,1.06-.02,3.58-.03,7.16,0,10.74,0,.89-.43,1.03-1.18,1.02-3.26-.03-6.53,.02-9.79-.03-.95-.01-1.29,.22-1.27,1.24,.06,3.14-.04,6.29,.03,9.44,.03,1.23-.45,1.57-1.58,1.56-3.15-.04-6.29,0-9.44-.03-.93-.01-1.28,.17-1.25,1.24,.08,3.3-.02,6.61,0,9.91,0,.79-.3,1.01-1.04,1-3.3-.03-6.6,.02-9.9-.03-.97-.01-1.3,.28-1.28,1.27,.05,3.26,0,6.53,.03,9.79,.01,.9-.26,1.23-1.21,1.22-3.46-.04-6.92-.01-10.38,.05-.93,.02-1.23-.3-1.22-1.22,.04-3.54,.03-7.08,0-10.62,0-.85,.31-1.08,1.11-1.07,3.26,.06,6.53,.03,9.79,.11,1.02,.02,1.39-.27,1.36-1.33-.08-3.07-.06-6.13-.08-9.2,0-1.71,0-1.72,1.66-1.71,3.3,0,6.61,.02,9.91,.03,.15,0,.3-.04,.61-.09Z"/>
  <path d="M101.9,32.87c0,2.97,0,5.83,0,8.69,0,.67-.08,1.35,.02,2,.17,1.21-.4,1.45-1.48,1.43-3.11-.05-6.21,.01-9.32-.04-1.07-.02-1.51,.19-1.46,1.43,.12,3.22,.02,6.45,.08,9.67,.02,.96-.34,1.2-1.25,1.19-3.38-.04-6.76-.04-10.14,0-1.03,.01-1.47-.26-1.45-1.39,.07-3.42,.05-6.84,0-10.26-.01-.91,.27-1.24,1.21-1.23,3.61,.04,7.22,.02,10.93,.02,.03-.51,.09-1.05,.09-1.59,.01-3.07,.05-6.14-.01-9.2-.02-1.1,.36-1.4,1.42-1.38,3.18,.06,6.37-.01,9.55,.04,.95,.02,1.22-.3,1.21-1.22-.04-3.26,0-6.53-.03-9.79-.01-.92,.29-1.25,1.22-1.24,3.5,.04,7,.04,10.5,0,.87,0,1.17,.3,1.16,1.17-.03,3.46-.04,6.92,0,10.38,.01,.93-.31,1.25-1.22,1.24-3.19-.03-6.37-.01-9.56,0-.46,0-.92,.05-1.49,.08Z"/>
  <path d="M106.36,169.89c0,2.97,0,5.83,0,8.69,0,.67-.08,1.35,.02,2,.17,1.21-.4,1.45-1.48,1.43-3.11-.05-6.21,.01-9.32-.04-1.07-.02-1.51,.19-1.46,1.43,.12,3.22,.02,6.45,.08,9.67,.02,.96-.34,1.2-1.25,1.19-3.38-.04-6.76-.04-10.14,0-1.03,.01-1.47-.26-1.45-1.39,.07-3.42,.05-6.84,0-10.26-.01-.91,.27-1.24,1.21-1.23,3.61,.04,7.22,.02,10.93,.02,.03-.51,.09-1.05,.09-1.59,.01-3.07,.05-6.14-.01-9.2-.02-1.1,.36-1.4,1.42-1.38,3.18,.06,6.37-.01,9.55,.04,.95,.02,1.22-.3,1.21-1.22-.04-3.26,0-6.53-.03-9.79-.01-.92,.29-1.25,1.22-1.24,3.5,.04,7,.04,10.5,0,.87,0,1.17,.3,1.16,1.17-.03,3.46-.04,6.92,0,10.38,.01,.93-.31,1.25-1.22,1.24-3.19-.03-6.37-.01-9.56,0-.46,0-.92,.05-1.49,.08Z"/>
  <path d="M169.97,83.89c0-.43,0-.85,0-1.27,0-3.23,.03-6.45-.02-9.68-.01-.95,.34-1.22,1.25-1.21,3.22,.04,6.45-.02,9.67,.03,.99,.01,1.38-.23,1.36-1.31-.07-3.18,0-6.37-.04-9.56-.01-.94,.24-1.35,1.24-1.34,3.54,.03,7.08,.01,10.62,0,.75,0,1.05,.31,1.04,1.06-.02,3.58-.03,7.16,0,10.74,0,.89-.43,1.03-1.18,1.02-3.26-.03-6.53,.02-9.79-.03-.95-.01-1.29,.22-1.27,1.24,.06,3.14-.04,6.29,.03,9.44,.03,1.23-.45,1.57-1.58,1.56-3.15-.04-6.29,0-9.44-.03-.93-.01-1.28,.17-1.25,1.24,.08,3.3-.02,6.61,0,9.91,0,.79-.3,1.01-1.04,1-3.3-.03-6.6,.02-9.9-.03-.97-.01-1.3,.28-1.28,1.27,.05,3.26,0,6.53,.03,9.79,.01,.9-.26,1.23-1.21,1.22-3.46-.04-6.92-.01-10.38,.05-.93,.02-1.23-.3-1.22-1.22,.04-3.54,.03-7.08,0-10.62,0-.85,.31-1.08,1.11-1.07,3.26,.06,6.53,.03,9.79,.11,1.02,.02,1.39-.27,1.36-1.33-.08-3.07-.06-6.13-.08-9.2,0-1.71,0-1.72,1.66-1.71,3.3,0,6.61,.02,9.91,.03,.15,0,.3-.04,.61-.09Z"/>
  <path d="M172.24,14.25c0,2.97,0,5.83,0,8.69,0,.67-.08,1.35,.02,2,.17,1.21-.4,1.45-1.48,1.43-3.11-.05-6.21,.01-9.32-.04-1.07-.02-1.51,.19-1.46,1.43,.12,3.22,.02,6.45,.08,9.67,.02,.96-.34,1.2-1.25,1.19-3.38-.04-6.76-.04-10.14,0-1.03,.01-1.47-.26-1.45-1.39,.07-3.42,.05-6.84,0-10.26-.01-.91,.27-1.24,1.21-1.23,3.61,.04,7.22,.02,10.93,.02,.03-.51,.09-1.05,.09-1.59,.01-3.07,.05-6.14-.01-9.2-.02-1.1,.36-1.4,1.42-1.38,3.18,.06,6.37-.01,9.55,.04,.95,.02,1.22-.3,1.21-1.22-.04-3.26,0-6.53-.03-9.79-.01-.92,.29-1.25,1.22-1.24,3.5,.04,7,.04,10.5,0,.87,0,1.17,.3,1.16,1.17-.03,3.46-.04,6.92,0,10.38,.01,.93-.31,1.25-1.22,1.24-3.19-.03-6.37-.01-9.56,0-.46,0-.92,.05-1.49,.08Z"/>
  <path d="M176.71,151.26c0,2.97,0,5.83,0,8.69,0,.67-.08,1.35,.02,2,.17,1.21-.4,1.45-1.48,1.43-3.11-.05-6.21,.01-9.32-.04-1.07-.02-1.51,.19-1.46,1.43,.12,3.22,.02,6.45,.08,9.67,.02,.96-.34,1.2-1.25,1.19-3.38-.04-6.76-.04-10.14,0-1.03,.01-1.47-.26-1.45-1.39,.07-3.42,.05-6.84,0-10.26-.01-.91,.27-1.24,1.21-1.23,3.61,.04,7.22,.02,10.93,.02,.03-.51,.09-1.05,.09-1.59,.01-3.07,.05-6.14-.01-9.2-.02-1.1,.36-1.4,1.42-1.38,3.18,.06,6.37-.01,9.55,.04,.95,.02,1.22-.3,1.21-1.22-.04-3.26,0-6.53-.03-9.79-.01-.92,.29-1.25,1.22-1.24,3.5,.04,7,.04,10.5,0,.87,0,1.17,.3,1.16,1.17-.03,3.46-.04,6.92,0,10.38,.01,.93-.31,1.25-1.22,1.24-3.19-.03-6.37-.01-9.56,0-.46,0-.92,.05-1.49,.08Z"/>
</svg>